{"title":"Crearly Now - I Can See (h264/mp4)","uid":7529113,"size":57331447,"categoryP":"video","categoryS":"music_videos","magnet":"?xt=urn:btih:e7f43da66f309f51dee4ce6cb819f0547d5d2f42&amp;dn=Crearly+Now+-+I+Can+See+%28h264%2Fmp4%29&amp;tr=udp%3A%2F%2Ftracker.openbittorrent.com%3A80&amp;tr=udp%3A%2F%2Fopen.demonii.com%3A1337&amp;tr=udp%3A%2F%2Ftracker.coppersurfer.tk%3A6969&amp;tr=udp%3A%2F%2Fexodus.desync.com%3A6969","seeders":1,"leechers":0,"uploader":"MusicVideos-HQ","files":1,"time":1344879365,"description":"General\n\nFormat                         : MPEG-4\nFormat profile                 : Base Media\nCodec ID                       : isom\nFile size                      : 54.7 MiB\nDuration                       : 2mn 42s\nOverall bit rate mode          : Variable\nOverall bit rate               : 2 816 Kbps\nEncoded date                   : UTC 2012-08-13 03:29:33\nTagged date                    : UTC 2012-08-13 03:29:33\n\nVideo\nID                             : 1\nFormat                         : AVC\nFormat/Info                    : Advanced Video Codec\nFormat profile                 : &lt;a class=&quot;__cf_email__&quot; href=&quot;/cdn-cgi/l/email-protection&quot; data-cfemail=&quot;8cc4e5ebe4ccc0bfa2bc&quot;&gt;[email&amp;#160;protected]&lt;/a&gt;&lt;script cf-hash='f9e31' type=&quot;text/javascript&quot;&gt;\n/* &lt;![CDATA[ */!function(){try{var t=&quot;currentScript&quot;in document?document.currentScript:function(){for(var t=document.getElementsByTagName(&quot;script&quot;),e=t.length;e--;)if(t[e].getAttribute(&quot;cf-hash&quot;))return t[e]}();if(t&amp;&amp;t.previousSibling){var e,r,n,i,c=t.previousSibling,a=c.getAttribute(&quot;data-cfemail&quot;);if(a){for(e=&quot;&quot;,r=parseInt(a.substr(0,2),16),n=2;a.length-n;n+=2)i=parseInt(a.substr(n,2),16)^r,e+=String.fromCharCode(i);e=document.createTextNode(e),c.parentNode.replaceChild(e,c)}}}catch(u){}}();/* ]]&gt; */&lt;/script&gt;\nFormat settings, CABAC         : Yes\nFormat settings, ReFrames      : 2 frames\nCodec ID                       : avc1\nCodec ID/Info                  : Advanced Video Coding\nDuration                       : 2mn 42s\nBit rate                       : 2 700 Kbps\nMaximum bit rate               : 4 693 Kbps\nWidth                          : 720 pixels\nHeight                         : 480 pixels\nDisplay aspect ratio           : 4:3\nOriginal display aspect ratio  : 4:3\nFrame rate mode                : Constant\nFrame rate                     : 29.970 fps\nStandard                       : NTSC\nColor space                    : YUV\nChroma subsampling             : 4:2:0\nBit depth                      : 8 bits\nScan type                      : Progressive\nBits/(Pixel*Frame)             : 0.261\nStream size                    : 50.8 MiB (93%)\n\n\nAudio\nID                             : 2\nFormat                         : AAC\nFormat/Info                    : Advanced Audio Codec\nFormat profile                 : LC\nCodec ID                       : 40\nDuration                       : 2mn 42s\nBit rate mode                  : Variable\nBit rate                       : 192 Kbps\nMaximum bit rate               : 227 Kbps\nChannel(s)                     : 2 channels\nChannel positions              : Front: L R\nSampling rate                  : 48.0 KHz\nCompression mode               : Lossy\nDelay relative to video        : -667ms\nStream size                    : 3.74 MiB (7%)","torrent":{"xt":"urn:btih:e7f43da66f309f51dee4ce6cb819f0547d5d2f42","amp;dn":"Crearly+Now+-+I+Can+See+%28h264%2Fmp4%29","amp;tr":["udp%3A%2F%2Ftracker.openbittorrent.com%3A80","udp%3A%2F%2Fopen.demonii.com%3A1337","udp%3A%2F%2Ftracker.coppersurfer.tk%3A6969","udp%3A%2F%2Fexodus.desync.com%3A6969"],"infoHash":"e7f43da66f309f51dee4ce6cb819f0547d5d2f42","infoHashBuffer":{"type":"Buffer","data":[231,244,61,166,111,48,159,81,222,228,206,108,184,25,240,84,125,93,47,66]},"announce":[],"urlList":[]}}